<mxfile host="Electron" modified="2023-12-30T20:38:33.743Z" agent="Mozilla/5.0 (Windows NT 10.0; Win64; x64) AppleWebKit/537.36 (KHTML, like Gecko) draw.io/22.1.16 Chrome/120.0.6099.109 Electron/28.1.0 Safari/537.36" etag="dfahk-JwtZwjYXL1neS-" version="22.1.16" type="device">
  <diagram name="PÃ¡gina-1" id="ynqvWvAWELpKmR3rIYSD">
    <mxGraphModel dx="847" dy="508" grid="1" gridSize="5" guides="1" tooltips="1" connect="1" arrows="1" fold="1" page="1" pageScale="1" pageWidth="827" pageHeight="1169" math="0" shadow="0">
      <root>
        <mxCell id="0" />
        <mxCell id="1" parent="0" />
        <mxCell id="UnfM8f-HwAjOcyo5KoHg-1" value="" style="whiteSpace=wrap;html=1;aspect=fixed;" parent="1" vertex="1">
          <mxGeometry x="100" y="100" width="40" height="40" as="geometry" />
        </mxCell>
        <mxCell id="UnfM8f-HwAjOcyo5KoHg-4" value="&lt;font style=&quot;font-size: 20px;&quot;&gt;0&lt;/font&gt;" style="whiteSpace=wrap;html=1;aspect=fixed;" parent="1" vertex="1">
          <mxGeometry x="105" y="105" width="30" height="30" as="geometry" />
        </mxCell>
        <mxCell id="UnfM8f-HwAjOcyo5KoHg-5" value="&lt;font style=&quot;font-size: 20px;&quot;&gt;1&lt;/font&gt;" style="whiteSpace=wrap;html=1;aspect=fixed;" parent="1" vertex="1">
          <mxGeometry x="100" y="181" width="40" height="40" as="geometry" />
        </mxCell>
        <mxCell id="UnfM8f-HwAjOcyo5KoHg-7" value="" style="endArrow=none;html=1;rounded=0;exitX=0.5;exitY=0;exitDx=0;exitDy=0;entryX=0.5;entryY=1;entryDx=0;entryDy=0;" parent="1" source="UnfM8f-HwAjOcyo5KoHg-5" target="UnfM8f-HwAjOcyo5KoHg-1" edge="1">
          <mxGeometry width="50" height="50" relative="1" as="geometry">
            <mxPoint x="80" y="186" as="sourcePoint" />
            <mxPoint x="120" y="141" as="targetPoint" />
            <Array as="points">
              <mxPoint x="120" y="161" />
            </Array>
          </mxGeometry>
        </mxCell>
        <mxCell id="UnfM8f-HwAjOcyo5KoHg-8" value="" style="endArrow=none;html=1;rounded=0;" parent="1" edge="1">
          <mxGeometry width="50" height="50" relative="1" as="geometry">
            <mxPoint x="115" y="161" as="sourcePoint" />
            <mxPoint x="125" y="161" as="targetPoint" />
          </mxGeometry>
        </mxCell>
        <mxCell id="MTEH4HIDff54xBT_iUkB-11" value="S1" style="text;html=1;align=center;verticalAlign=middle;resizable=0;points=[];autosize=1;strokeColor=none;fillColor=none;" vertex="1" parent="1">
          <mxGeometry x="120" y="146" width="35" height="30" as="geometry" />
        </mxCell>
        <mxCell id="MTEH4HIDff54xBT_iUkB-12" value="" style="endArrow=none;html=1;rounded=0;exitX=0.5;exitY=0;exitDx=0;exitDy=0;entryX=0.5;entryY=1;entryDx=0;entryDy=0;" edge="1" parent="1">
          <mxGeometry width="50" height="50" relative="1" as="geometry">
            <mxPoint x="120" y="262" as="sourcePoint" />
            <mxPoint x="120" y="221" as="targetPoint" />
            <Array as="points">
              <mxPoint x="120" y="242" />
            </Array>
          </mxGeometry>
        </mxCell>
        <mxCell id="MTEH4HIDff54xBT_iUkB-13" value="" style="endArrow=none;html=1;rounded=0;" edge="1" parent="1">
          <mxGeometry width="50" height="50" relative="1" as="geometry">
            <mxPoint x="115" y="242" as="sourcePoint" />
            <mxPoint x="125" y="242" as="targetPoint" />
          </mxGeometry>
        </mxCell>
        <mxCell id="MTEH4HIDff54xBT_iUkB-14" value="T1" style="text;html=1;align=center;verticalAlign=middle;resizable=0;points=[];autosize=1;strokeColor=none;fillColor=none;" vertex="1" parent="1">
          <mxGeometry x="120" y="227" width="35" height="30" as="geometry" />
        </mxCell>
        <mxCell id="MTEH4HIDff54xBT_iUkB-15" value="&lt;font style=&quot;font-size: 20px;&quot;&gt;2&lt;/font&gt;" style="whiteSpace=wrap;html=1;aspect=fixed;" vertex="1" parent="1">
          <mxGeometry x="100" y="261" width="40" height="40" as="geometry" />
        </mxCell>
        <mxCell id="MTEH4HIDff54xBT_iUkB-16" value="" style="endArrow=none;html=1;rounded=0;exitX=1;exitY=0.5;exitDx=0;exitDy=0;entryX=0;entryY=0.5;entryDx=0;entryDy=0;" edge="1" parent="1" source="UnfM8f-HwAjOcyo5KoHg-5" target="MTEH4HIDff54xBT_iUkB-17">
          <mxGeometry width="50" height="50" relative="1" as="geometry">
            <mxPoint x="175" y="221" as="sourcePoint" />
            <mxPoint x="150" y="206" as="targetPoint" />
          </mxGeometry>
        </mxCell>
        <mxCell id="MTEH4HIDff54xBT_iUkB-17" value="&lt;font style=&quot;font-size: 20px;&quot;&gt;H1&lt;/font&gt;" style="rounded=0;whiteSpace=wrap;html=1;" vertex="1" parent="1">
          <mxGeometry x="160" y="181" width="40" height="40" as="geometry" />
        </mxCell>
        <mxCell id="MTEH4HIDff54xBT_iUkB-18" value="&lt;font style=&quot;font-size: 20px;&quot;&gt;Y1&lt;/font&gt;" style="rounded=0;whiteSpace=wrap;html=1;" vertex="1" parent="1">
          <mxGeometry x="260" y="181" width="40" height="40" as="geometry" />
        </mxCell>
        <mxCell id="MTEH4HIDff54xBT_iUkB-19" value="&lt;span style=&quot;font-size: 20px;&quot;&gt;T1&lt;br&gt;&lt;/span&gt;" style="rounded=0;whiteSpace=wrap;html=1;" vertex="1" parent="1">
          <mxGeometry x="300" y="181" width="40" height="40" as="geometry" />
        </mxCell>
        <mxCell id="MTEH4HIDff54xBT_iUkB-20" value="&lt;span style=&quot;font-size: 20px;&quot;&gt;M1L&lt;br&gt;&lt;/span&gt;" style="rounded=0;whiteSpace=wrap;html=1;" vertex="1" parent="1">
          <mxGeometry x="200" y="181" width="60" height="40" as="geometry" />
        </mxCell>
        <mxCell id="MTEH4HIDff54xBT_iUkB-21" value="" style="endArrow=none;html=1;rounded=0;exitX=0.75;exitY=0;exitDx=0;exitDy=0;" edge="1" parent="1">
          <mxGeometry width="50" height="50" relative="1" as="geometry">
            <mxPoint x="170" y="181" as="sourcePoint" />
            <mxPoint x="170" y="171" as="targetPoint" />
          </mxGeometry>
        </mxCell>
        <mxCell id="MTEH4HIDff54xBT_iUkB-22" value="Clk" style="text;html=1;align=center;verticalAlign=middle;resizable=0;points=[];autosize=1;strokeColor=none;fillColor=none;" vertex="1" parent="1">
          <mxGeometry x="165" y="156" width="40" height="30" as="geometry" />
        </mxCell>
        <mxCell id="MTEH4HIDff54xBT_iUkB-25" value="" style="endArrow=none;html=1;rounded=0;exitX=1;exitY=0.5;exitDx=0;exitDy=0;entryX=0;entryY=0.5;entryDx=0;entryDy=0;" edge="1" parent="1">
          <mxGeometry width="50" height="50" relative="1" as="geometry">
            <mxPoint x="140" y="280.9" as="sourcePoint" />
            <mxPoint x="160" y="280.9" as="targetPoint" />
          </mxGeometry>
        </mxCell>
        <mxCell id="MTEH4HIDff54xBT_iUkB-27" value="&lt;font style=&quot;font-size: 20px;&quot;&gt;H1&lt;/font&gt;" style="rounded=0;whiteSpace=wrap;html=1;" vertex="1" parent="1">
          <mxGeometry x="160" y="261" width="40" height="40" as="geometry" />
        </mxCell>
        <mxCell id="MTEH4HIDff54xBT_iUkB-28" value="&lt;font style=&quot;font-size: 20px;&quot;&gt;Y2&lt;/font&gt;" style="rounded=0;whiteSpace=wrap;html=1;" vertex="1" parent="1">
          <mxGeometry x="260" y="261" width="40" height="40" as="geometry" />
        </mxCell>
        <mxCell id="MTEH4HIDff54xBT_iUkB-29" value="&lt;span style=&quot;font-size: 20px;&quot;&gt;T2&lt;br&gt;&lt;/span&gt;" style="rounded=0;whiteSpace=wrap;html=1;" vertex="1" parent="1">
          <mxGeometry x="300" y="261" width="40" height="40" as="geometry" />
        </mxCell>
        <mxCell id="MTEH4HIDff54xBT_iUkB-30" value="&lt;span style=&quot;font-size: 20px;&quot;&gt;M1L&lt;br&gt;&lt;/span&gt;" style="rounded=0;whiteSpace=wrap;html=1;" vertex="1" parent="1">
          <mxGeometry x="200" y="261" width="60" height="40" as="geometry" />
        </mxCell>
        <mxCell id="MTEH4HIDff54xBT_iUkB-31" value="" style="endArrow=none;html=1;rounded=0;exitX=0.75;exitY=0;exitDx=0;exitDy=0;" edge="1" parent="1">
          <mxGeometry width="50" height="50" relative="1" as="geometry">
            <mxPoint x="170" y="261" as="sourcePoint" />
            <mxPoint x="170" y="251" as="targetPoint" />
          </mxGeometry>
        </mxCell>
        <mxCell id="MTEH4HIDff54xBT_iUkB-32" value="Clk" style="text;html=1;align=center;verticalAlign=middle;resizable=0;points=[];autosize=1;strokeColor=none;fillColor=none;" vertex="1" parent="1">
          <mxGeometry x="165" y="236" width="40" height="30" as="geometry" />
        </mxCell>
        <mxCell id="MTEH4HIDff54xBT_iUkB-33" value="" style="endArrow=none;html=1;rounded=0;exitX=0.5;exitY=0;exitDx=0;exitDy=0;entryX=0.5;entryY=1;entryDx=0;entryDy=0;" edge="1" parent="1">
          <mxGeometry width="50" height="50" relative="1" as="geometry">
            <mxPoint x="120" y="342" as="sourcePoint" />
            <mxPoint x="120" y="301" as="targetPoint" />
            <Array as="points">
              <mxPoint x="120" y="322" />
            </Array>
          </mxGeometry>
        </mxCell>
        <mxCell id="MTEH4HIDff54xBT_iUkB-34" value="" style="endArrow=none;html=1;rounded=0;" edge="1" parent="1">
          <mxGeometry width="50" height="50" relative="1" as="geometry">
            <mxPoint x="115" y="322" as="sourcePoint" />
            <mxPoint x="125" y="322" as="targetPoint" />
          </mxGeometry>
        </mxCell>
        <mxCell id="MTEH4HIDff54xBT_iUkB-35" value="T2" style="text;html=1;align=center;verticalAlign=middle;resizable=0;points=[];autosize=1;strokeColor=none;fillColor=none;" vertex="1" parent="1">
          <mxGeometry x="120" y="307" width="35" height="30" as="geometry" />
        </mxCell>
        <mxCell id="MTEH4HIDff54xBT_iUkB-36" value="&lt;font style=&quot;font-size: 20px;&quot;&gt;3&lt;/font&gt;" style="whiteSpace=wrap;html=1;aspect=fixed;" vertex="1" parent="1">
          <mxGeometry x="100" y="341" width="40" height="40" as="geometry" />
        </mxCell>
        <mxCell id="MTEH4HIDff54xBT_iUkB-37" value="" style="endArrow=none;html=1;rounded=0;exitX=1;exitY=0.5;exitDx=0;exitDy=0;" edge="1" parent="1">
          <mxGeometry width="50" height="50" relative="1" as="geometry">
            <mxPoint x="140" y="361" as="sourcePoint" />
            <mxPoint x="160" y="361" as="targetPoint" />
          </mxGeometry>
        </mxCell>
        <mxCell id="MTEH4HIDff54xBT_iUkB-38" value="&lt;span style=&quot;font-size: 20px;&quot;&gt;PID&lt;/span&gt;" style="rounded=0;whiteSpace=wrap;html=1;" vertex="1" parent="1">
          <mxGeometry x="260" y="341" width="60" height="40" as="geometry" />
        </mxCell>
        <mxCell id="MTEH4HIDff54xBT_iUkB-39" value="&lt;font style=&quot;font-size: 20px;&quot;&gt;H1&lt;/font&gt;" style="rounded=0;whiteSpace=wrap;html=1;" vertex="1" parent="1">
          <mxGeometry x="160" y="341" width="40" height="40" as="geometry" />
        </mxCell>
        <mxCell id="MTEH4HIDff54xBT_iUkB-40" value="" style="endArrow=none;html=1;rounded=0;exitX=0.75;exitY=0;exitDx=0;exitDy=0;" edge="1" parent="1">
          <mxGeometry width="50" height="50" relative="1" as="geometry">
            <mxPoint x="170" y="341" as="sourcePoint" />
            <mxPoint x="170" y="331" as="targetPoint" />
          </mxGeometry>
        </mxCell>
        <mxCell id="MTEH4HIDff54xBT_iUkB-41" value="Clk" style="text;html=1;align=center;verticalAlign=middle;resizable=0;points=[];autosize=1;strokeColor=none;fillColor=none;" vertex="1" parent="1">
          <mxGeometry x="165" y="316" width="40" height="30" as="geometry" />
        </mxCell>
        <mxCell id="MTEH4HIDff54xBT_iUkB-42" value="&lt;span style=&quot;font-size: 20px;&quot;&gt;M1L&lt;br&gt;&lt;/span&gt;" style="rounded=0;whiteSpace=wrap;html=1;" vertex="1" parent="1">
          <mxGeometry x="200" y="341" width="60" height="40" as="geometry" />
        </mxCell>
        <mxCell id="MTEH4HIDff54xBT_iUkB-43" value="" style="endArrow=none;html=1;rounded=0;exitX=0.5;exitY=0;exitDx=0;exitDy=0;entryX=0.5;entryY=1;entryDx=0;entryDy=0;" edge="1" parent="1">
          <mxGeometry width="50" height="50" relative="1" as="geometry">
            <mxPoint x="120" y="422" as="sourcePoint" />
            <mxPoint x="120" y="381" as="targetPoint" />
            <Array as="points">
              <mxPoint x="120" y="402" />
            </Array>
          </mxGeometry>
        </mxCell>
        <mxCell id="MTEH4HIDff54xBT_iUkB-44" value="" style="endArrow=none;html=1;rounded=0;" edge="1" parent="1">
          <mxGeometry width="50" height="50" relative="1" as="geometry">
            <mxPoint x="115" y="402" as="sourcePoint" />
            <mxPoint x="125" y="402" as="targetPoint" />
          </mxGeometry>
        </mxCell>
        <mxCell id="MTEH4HIDff54xBT_iUkB-45" value="tÂº = SP" style="text;html=1;align=center;verticalAlign=middle;resizable=0;points=[];autosize=1;strokeColor=none;fillColor=none;" vertex="1" parent="1">
          <mxGeometry x="120" y="386" width="60" height="30" as="geometry" />
        </mxCell>
        <mxCell id="MTEH4HIDff54xBT_iUkB-46" value="&lt;font style=&quot;font-size: 20px;&quot;&gt;4&lt;/font&gt;" style="whiteSpace=wrap;html=1;aspect=fixed;" vertex="1" parent="1">
          <mxGeometry x="100" y="421" width="40" height="40" as="geometry" />
        </mxCell>
        <mxCell id="MTEH4HIDff54xBT_iUkB-49" value="" style="endArrow=none;html=1;rounded=0;exitX=1;exitY=0.5;exitDx=0;exitDy=0;" edge="1" parent="1">
          <mxGeometry width="50" height="50" relative="1" as="geometry">
            <mxPoint x="140" y="441" as="sourcePoint" />
            <mxPoint x="160" y="441" as="targetPoint" />
          </mxGeometry>
        </mxCell>
        <mxCell id="MTEH4HIDff54xBT_iUkB-50" value="&lt;font style=&quot;font-size: 20px;&quot;&gt;H1&lt;/font&gt;" style="rounded=0;whiteSpace=wrap;html=1;" vertex="1" parent="1">
          <mxGeometry x="160" y="421" width="40" height="40" as="geometry" />
        </mxCell>
        <mxCell id="MTEH4HIDff54xBT_iUkB-51" value="&lt;span style=&quot;font-size: 20px;&quot;&gt;M1R&lt;br&gt;&lt;/span&gt;" style="rounded=0;whiteSpace=wrap;html=1;" vertex="1" parent="1">
          <mxGeometry x="200" y="421" width="60" height="40" as="geometry" />
        </mxCell>
        <mxCell id="MTEH4HIDff54xBT_iUkB-52" value="" style="endArrow=none;html=1;rounded=0;exitX=0.5;exitY=0;exitDx=0;exitDy=0;entryX=0.5;entryY=1;entryDx=0;entryDy=0;" edge="1" parent="1">
          <mxGeometry width="50" height="50" relative="1" as="geometry">
            <mxPoint x="120" y="502" as="sourcePoint" />
            <mxPoint x="120" y="461" as="targetPoint" />
            <Array as="points">
              <mxPoint x="120" y="482" />
            </Array>
          </mxGeometry>
        </mxCell>
        <mxCell id="MTEH4HIDff54xBT_iUkB-53" value="" style="endArrow=none;html=1;rounded=0;" edge="1" parent="1">
          <mxGeometry width="50" height="50" relative="1" as="geometry">
            <mxPoint x="115" y="482" as="sourcePoint" />
            <mxPoint x="125" y="482" as="targetPoint" />
          </mxGeometry>
        </mxCell>
        <mxCell id="MTEH4HIDff54xBT_iUkB-54" value="&lt;font style=&quot;font-size: 20px;&quot;&gt;5&lt;/font&gt;" style="whiteSpace=wrap;html=1;aspect=fixed;" vertex="1" parent="1">
          <mxGeometry x="100" y="501" width="40" height="40" as="geometry" />
        </mxCell>
        <mxCell id="MTEH4HIDff54xBT_iUkB-55" value="" style="endArrow=none;html=1;rounded=0;exitX=1;exitY=0.5;exitDx=0;exitDy=0;" edge="1" parent="1">
          <mxGeometry width="50" height="50" relative="1" as="geometry">
            <mxPoint x="140" y="521" as="sourcePoint" />
            <mxPoint x="160" y="521" as="targetPoint" />
          </mxGeometry>
        </mxCell>
        <mxCell id="MTEH4HIDff54xBT_iUkB-56" value="tÂº = 22ÂºC" style="text;html=1;align=center;verticalAlign=middle;resizable=0;points=[];autosize=1;strokeColor=none;fillColor=none;" vertex="1" parent="1">
          <mxGeometry x="120" y="466" width="70" height="30" as="geometry" />
        </mxCell>
        <mxCell id="MTEH4HIDff54xBT_iUkB-57" value="&lt;font style=&quot;font-size: 20px;&quot;&gt;Y3&lt;/font&gt;" style="rounded=0;whiteSpace=wrap;html=1;" vertex="1" parent="1">
          <mxGeometry x="160" y="501" width="40" height="40" as="geometry" />
        </mxCell>
        <mxCell id="MTEH4HIDff54xBT_iUkB-60" value="" style="endArrow=none;html=1;rounded=0;exitX=0.5;exitY=0;exitDx=0;exitDy=0;entryX=0.5;entryY=1;entryDx=0;entryDy=0;" edge="1" parent="1">
          <mxGeometry width="50" height="50" relative="1" as="geometry">
            <mxPoint x="120" y="582" as="sourcePoint" />
            <mxPoint x="120" y="541" as="targetPoint" />
            <Array as="points">
              <mxPoint x="120" y="562" />
            </Array>
          </mxGeometry>
        </mxCell>
        <mxCell id="MTEH4HIDff54xBT_iUkB-61" value="" style="endArrow=none;html=1;rounded=0;" edge="1" parent="1">
          <mxGeometry width="50" height="50" relative="1" as="geometry">
            <mxPoint x="115" y="562" as="sourcePoint" />
            <mxPoint x="125" y="562" as="targetPoint" />
          </mxGeometry>
        </mxCell>
        <mxCell id="MTEH4HIDff54xBT_iUkB-62" value="B5 = 0m" style="text;html=1;align=center;verticalAlign=middle;resizable=0;points=[];autosize=1;strokeColor=none;fillColor=none;" vertex="1" parent="1">
          <mxGeometry x="120" y="547" width="65" height="30" as="geometry" />
        </mxCell>
        <mxCell id="MTEH4HIDff54xBT_iUkB-63" value="" style="whiteSpace=wrap;html=1;aspect=fixed;" vertex="1" parent="1">
          <mxGeometry x="100" y="581" width="40" height="40" as="geometry" />
        </mxCell>
        <mxCell id="MTEH4HIDff54xBT_iUkB-64" value="&lt;font style=&quot;font-size: 20px;&quot;&gt;0&lt;/font&gt;" style="whiteSpace=wrap;html=1;aspect=fixed;" vertex="1" parent="1">
          <mxGeometry x="105" y="586" width="30" height="30" as="geometry" />
        </mxCell>
        <mxCell id="MTEH4HIDff54xBT_iUkB-65" value="&lt;font style=&quot;font-size: 25px;&quot;&gt;Principal&lt;/font&gt;" style="text;html=1;align=center;verticalAlign=middle;resizable=0;points=[];autosize=1;strokeColor=none;fillColor=none;" vertex="1" parent="1">
          <mxGeometry x="62.5" y="43" width="115" height="45" as="geometry" />
        </mxCell>
        <mxCell id="MTEH4HIDff54xBT_iUkB-66" value="&lt;font style=&quot;font-size: 25px;&quot;&gt;Emergencia&lt;/font&gt;" style="text;html=1;align=center;verticalAlign=middle;resizable=0;points=[];autosize=1;strokeColor=none;fillColor=none;" vertex="1" parent="1">
          <mxGeometry x="385" y="43" width="155" height="45" as="geometry" />
        </mxCell>
        <mxCell id="MTEH4HIDff54xBT_iUkB-67" value="" style="whiteSpace=wrap;html=1;aspect=fixed;" vertex="1" parent="1">
          <mxGeometry x="442" y="100" width="40" height="40" as="geometry" />
        </mxCell>
        <mxCell id="MTEH4HIDff54xBT_iUkB-68" value="&lt;font style=&quot;font-size: 20px;&quot;&gt;10&lt;/font&gt;" style="whiteSpace=wrap;html=1;aspect=fixed;" vertex="1" parent="1">
          <mxGeometry x="447" y="105" width="30" height="30" as="geometry" />
        </mxCell>
        <mxCell id="MTEH4HIDff54xBT_iUkB-69" value="" style="endArrow=none;html=1;rounded=0;exitX=0.5;exitY=0;exitDx=0;exitDy=0;entryX=0.5;entryY=1;entryDx=0;entryDy=0;" edge="1" parent="1" target="MTEH4HIDff54xBT_iUkB-67">
          <mxGeometry width="50" height="50" relative="1" as="geometry">
            <mxPoint x="462" y="182" as="sourcePoint" />
            <mxPoint x="462" y="141" as="targetPoint" />
            <Array as="points">
              <mxPoint x="462" y="162" />
            </Array>
          </mxGeometry>
        </mxCell>
        <mxCell id="MTEH4HIDff54xBT_iUkB-70" value="" style="endArrow=none;html=1;rounded=0;" edge="1" parent="1">
          <mxGeometry width="50" height="50" relative="1" as="geometry">
            <mxPoint x="457" y="162" as="sourcePoint" />
            <mxPoint x="467" y="162" as="targetPoint" />
          </mxGeometry>
        </mxCell>
        <mxCell id="MTEH4HIDff54xBT_iUkB-71" value="!S3" style="text;html=1;align=center;verticalAlign=middle;resizable=0;points=[];autosize=1;strokeColor=none;fillColor=none;" vertex="1" parent="1">
          <mxGeometry x="462" y="146" width="40" height="30" as="geometry" />
        </mxCell>
        <mxCell id="MTEH4HIDff54xBT_iUkB-72" value="&lt;font style=&quot;font-size: 20px;&quot;&gt;11&lt;/font&gt;" style="whiteSpace=wrap;html=1;aspect=fixed;" vertex="1" parent="1">
          <mxGeometry x="442" y="181" width="40" height="40" as="geometry" />
        </mxCell>
        <mxCell id="MTEH4HIDff54xBT_iUkB-73" value="" style="endArrow=none;html=1;rounded=0;exitX=0.5;exitY=0;exitDx=0;exitDy=0;entryX=0.5;entryY=1;entryDx=0;entryDy=0;" edge="1" parent="1" target="MTEH4HIDff54xBT_iUkB-72">
          <mxGeometry width="50" height="50" relative="1" as="geometry">
            <mxPoint x="462" y="261" as="sourcePoint" />
            <mxPoint x="462" y="220" as="targetPoint" />
            <Array as="points">
              <mxPoint x="462" y="241" />
            </Array>
          </mxGeometry>
        </mxCell>
        <mxCell id="MTEH4HIDff54xBT_iUkB-74" value="" style="endArrow=none;html=1;rounded=0;" edge="1" parent="1">
          <mxGeometry width="50" height="50" relative="1" as="geometry">
            <mxPoint x="457" y="241" as="sourcePoint" />
            <mxPoint x="467" y="241" as="targetPoint" />
          </mxGeometry>
        </mxCell>
        <mxCell id="MTEH4HIDff54xBT_iUkB-75" value="S3" style="text;html=1;align=center;verticalAlign=middle;resizable=0;points=[];autosize=1;strokeColor=none;fillColor=none;" vertex="1" parent="1">
          <mxGeometry x="462" y="225" width="35" height="30" as="geometry" />
        </mxCell>
        <mxCell id="MTEH4HIDff54xBT_iUkB-76" value="&lt;font style=&quot;font-size: 20px;&quot;&gt;12&lt;/font&gt;" style="whiteSpace=wrap;html=1;aspect=fixed;" vertex="1" parent="1">
          <mxGeometry x="442" y="260" width="40" height="40" as="geometry" />
        </mxCell>
        <mxCell id="MTEH4HIDff54xBT_iUkB-77" value="" style="whiteSpace=wrap;html=1;aspect=fixed;" vertex="1" parent="1">
          <mxGeometry x="442" y="341" width="40" height="40" as="geometry" />
        </mxCell>
        <mxCell id="MTEH4HIDff54xBT_iUkB-78" value="&lt;font style=&quot;font-size: 20px;&quot;&gt;10&lt;/font&gt;" style="whiteSpace=wrap;html=1;aspect=fixed;" vertex="1" parent="1">
          <mxGeometry x="447" y="346" width="30" height="30" as="geometry" />
        </mxCell>
        <mxCell id="MTEH4HIDff54xBT_iUkB-79" value="" style="endArrow=none;html=1;rounded=0;entryX=0.5;entryY=1;entryDx=0;entryDy=0;exitX=0.5;exitY=0;exitDx=0;exitDy=0;" edge="1" parent="1" source="MTEH4HIDff54xBT_iUkB-77">
          <mxGeometry width="50" height="50" relative="1" as="geometry">
            <mxPoint x="452" y="330" as="sourcePoint" />
            <mxPoint x="462" y="300" as="targetPoint" />
            <Array as="points">
              <mxPoint x="462" y="320" />
            </Array>
          </mxGeometry>
        </mxCell>
        <mxCell id="MTEH4HIDff54xBT_iUkB-80" value="" style="endArrow=none;html=1;rounded=0;" edge="1" parent="1">
          <mxGeometry width="50" height="50" relative="1" as="geometry">
            <mxPoint x="457" y="320" as="sourcePoint" />
            <mxPoint x="467" y="320" as="targetPoint" />
          </mxGeometry>
        </mxCell>
        <mxCell id="MTEH4HIDff54xBT_iUkB-81" value="=1" style="text;html=1;align=center;verticalAlign=middle;resizable=0;points=[];autosize=1;strokeColor=none;fillColor=none;" vertex="1" parent="1">
          <mxGeometry x="462" y="304" width="35" height="30" as="geometry" />
        </mxCell>
        <mxCell id="MTEH4HIDff54xBT_iUkB-82" value="" style="endArrow=none;html=1;rounded=0;exitX=1;exitY=0.5;exitDx=0;exitDy=0;entryX=0;entryY=0.5;entryDx=0;entryDy=0;" edge="1" target="MTEH4HIDff54xBT_iUkB-83" parent="1">
          <mxGeometry width="50" height="50" relative="1" as="geometry">
            <mxPoint x="482" y="201" as="sourcePoint" />
            <mxPoint x="492" y="206" as="targetPoint" />
          </mxGeometry>
        </mxCell>
        <mxCell id="MTEH4HIDff54xBT_iUkB-83" value="&lt;font style=&quot;font-size: 20px;&quot;&gt;H3&lt;/font&gt;" style="rounded=0;whiteSpace=wrap;html=1;" vertex="1" parent="1">
          <mxGeometry x="502" y="181" width="38" height="40" as="geometry" />
        </mxCell>
      </root>
    </mxGraphModel>
  </diagram>
</mxfile>
